<svg xmlns="http://www.w3.org/2000/svg" id="Layer_1" data-name="Layer 1" viewBox="0 0 949.84 472.68"><defs><style>.cls-1{fill:#34322c}.cls-2{fill:#ad8e63}</style></defs><path d="M409.51 281.05h-59.12a20.86 20.86 0 0 1-20.83-20.83V147.84a21.18 21.18 0 0 1 21.16-21.16h27.11a2.6 2.6 0 0 0 1.61-.55l94.3-73.5 79.49 61.73-4 5.21L473.75 61l-90.26 70.35a9.28 9.28 0 0 1-5.66 1.94h-27.11a14.57 14.57 0 0 0-14.56 14.56v112.37a14.25 14.25 0 0 0 14.23 14.23h59.12ZM596.86 281.05H541.8v-6.6h55.06A14.18 14.18 0 0 0 611 260.28V148a15.51 15.51 0 0 0-15.49-15.49H560v-6.6h35.56A22.12 22.12 0 0 1 617.63 148v112.28a20.79 20.79 0 0 1-20.77 20.77" class="cls-1"/><path d="M489.29 133.28v147.77h-6.5v-142l-45.38 27.78v114.22h-6.5V165a3.26 3.26 0 0 1 1.55-2.77l51.89-31.76a3.24 3.24 0 0 1 4.94 2.77Z" class="cls-2"/><path d="M523.59 196.34v84.71h-6.5v-82.83l-27.8-16-4.87-2.81a3.25 3.25 0 0 1 3.24-5.64l1.63.94L522 193.52a3.25 3.25 0 0 1 1.59 2.82M380.9 108.32l-3.96-5.15 96.81-74.58 80.63 62.05-3.97 5.16-76.66-59.01z" class="cls-2"/><circle cx="576.04" cy="157.87" r="8" class="cls-2"/><path d="M18 322.33h4.42l.12 38.82H18ZM74.17 322.33v38.82h-3.9L45 328.29l.47 32.86h-4v-38.82h4.13l25.08 32.56-.47-32.56ZM127.38 361.15l-1-32.81-13.45 31.51h-2.07l-13.68-31.56-.83 32.86h-3.83L94 322.33h4.43l13.86 30.74 13.22-30.74h4.3l1.95 38.82ZM156.32 359.56a13.66 13.66 0 0 1-5.6-5.52 16.93 16.93 0 0 1-2-8.35v-23.36h4.37v22.48q0 6.13 3.36 9.73a11.76 11.76 0 0 0 9 3.6 11.16 11.16 0 0 0 8.64-3.42q3.17-3.42 3.16-9.21v-23.18h3.83v22.48a18.34 18.34 0 0 1-2 8.79 14.4 14.4 0 0 1-5.78 5.84 17.7 17.7 0 0 1-8.65 2.06 17.5 17.5 0 0 1-8.33-1.94M223.08 357.67v3.48H198.6v-38.82h22.77v3.48H203v13.92h16.17v3.48H203v14.46ZM261.52 344.16a9.28 9.28 0 0 1 2 6 9.85 9.85 0 0 1-1.71 5.73 11.17 11.17 0 0 1-4.89 3.86 18.3 18.3 0 0 1-7.38 1.39h-11v-38.81h10.85c3.54 0 6.37.84 8.47 2.53a8.29 8.29 0 0 1 3.16 6.79 9.8 9.8 0 0 1-1.39 5.1 10 10 0 0 1-3.8 3.69 11.74 11.74 0 0 1 5.69 3.72m-18.79-18.53v13.69h7a7.3 7.3 0 0 0 5.27-1.92 6.58 6.58 0 0 0 2-5 6.27 6.27 0 0 0-2.07-5q-2.07-1.83-6.19-1.83Zm14.19 30.15a7.05 7.05 0 0 0 2.39-5.61 6.74 6.74 0 0 0-2.63-5.63q-2.62-2-7.58-2h-6.37v15.34h7.49a9.93 9.93 0 0 0 6.7-2.1M304.5 357.67v3.48h-26v-38.82h4.37v35.34ZM342.44 357.67v3.48H318v-38.82h22.78v3.48h-18.46v13.92h16.16v3.48h-16.16v14.46ZM374 347.93a9.8 9.8 0 0 0-2.92-2.62q-1.74-1-4.75-2.45a51 51 0 0 1-5.31-2.78 11 11 0 0 1-3.39-3.27 8.5 8.5 0 0 1-1.39-4.93 8.75 8.75 0 0 1 3.36-7.25 13.52 13.52 0 0 1 8.62-2.66 21.5 21.5 0 0 1 5.43.71 16 16 0 0 1 4.72 2l-2.13 3.36a13.8 13.8 0 0 0-4.07-2.07 15 15 0 0 0-4.66-.76 7.74 7.74 0 0 0-5.43 1.74 5.58 5.58 0 0 0-1.89 4.28 5.13 5.13 0 0 0 1.1 3.27 10 10 0 0 0 2.68 2.36 50 50 0 0 0 4.43 2.33 58 58 0 0 1 5.57 3.1 12.4 12.4 0 0 1 3.66 3.63 9.5 9.5 0 0 1 1.5 5.42 8.89 8.89 0 0 1-3.54 7.56 14.82 14.82 0 0 1-9.14 2.65 21 21 0 0 1-6.76-1.06 15 15 0 0 1-5.22-2.89l2.48-3.54a14.4 14.4 0 0 0 4.72 3.13 14.6 14.6 0 0 0 5.55 1.12 8.87 8.87 0 0 0 5.84-1.77 5.92 5.92 0 0 0 2.12-4.78 6.24 6.24 0 0 0-1.18-3.83M435.77 347.81H419.9l-5 13.34h-4.43l15.64-38.82H430l15.58 38.82h-4.66Zm-1.35-3.48L427.75 327l-6.55 17.34ZM465.6 359.56A13.7 13.7 0 0 1 460 354a16.93 16.93 0 0 1-2-8.35v-23.32h4.36v22.48q0 6.13 3.37 9.73a11.75 11.75 0 0 0 9 3.6 11.2 11.2 0 0 0 8.65-3.42q3.15-3.42 3.15-9.21v-23.18h3.84v22.48a18.2 18.2 0 0 1-2 8.79 14.26 14.26 0 0 1-5.78 5.84 17.7 17.7 0 0 1-8.59 2.06 17.5 17.5 0 0 1-8.4-1.94M507.87 322.33h10.8a26.24 26.24 0 0 1 11.41 2.39 18.85 18.85 0 0 1 7.88 6.66 17 17 0 0 1 2.83 9.59 19.28 19.28 0 0 1-10.59 17.58 24.2 24.2 0 0 1-11.36 2.6h-11ZM519.2 358a19.2 19.2 0 0 0 9-2 14.16 14.16 0 0 0 5.9-5.7 17.3 17.3 0 0 0 2.06-8.58 15.6 15.6 0 0 0-2.27-8.38 15.2 15.2 0 0 0-6.4-5.69 21.06 21.06 0 0 0-9.44-2h-5.78V358ZM556.54 322.33H561l.12 38.82h-4.55ZM586.43 358.94a18.65 18.65 0 0 1-7-7 19.6 19.6 0 0 1-2.53-9.94 19.83 19.83 0 0 1 2.68-10.23 19.24 19.24 0 0 1 7.32-7.17 20.6 20.6 0 0 1 10.24-2.6 20.14 20.14 0 0 1 10.12 2.57 18.5 18.5 0 0 1 7 7 19.9 19.9 0 0 1 2.53 10 19.53 19.53 0 0 1-10.09 17.35 20.7 20.7 0 0 1-10.26 2.59 19.8 19.8 0 0 1-10.01-2.57m18.57-2.66a14.07 14.07 0 0 0 5.31-5.66 17.45 17.45 0 0 0 1.92-8.29 19.3 19.3 0 0 0-2-8.88 14.9 14.9 0 0 0-5.55-6.05 15.4 15.4 0 0 0-8.17-2.18 15 15 0 0 0-7.79 2 14 14 0 0 0-5.31 5.67 17.7 17.7 0 0 0-1.89 8.29 19.2 19.2 0 0 0 2 8.88 14.84 14.84 0 0 0 5.54 6 15.33 15.33 0 0 0 8.18 2.19 14.73 14.73 0 0 0 7.76-1.97M663 322.33l-15.58 38.82h-4.24l-15.64-38.82h4.6l13.51 34.45 12.81-34.45ZM678 322.33h4.42l.12 38.82H678ZM717.5 347.93a9.8 9.8 0 0 0-2.93-2.62q-1.74-1-4.74-2.45a49 49 0 0 1-5.31-2.78 11.1 11.1 0 0 1-3.4-3.27 8.6 8.6 0 0 1-1.38-4.93 8.75 8.75 0 0 1 3.36-7.25 13.47 13.47 0 0 1 8.61-2.66 21.5 21.5 0 0 1 5.43.71 16 16 0 0 1 4.72 2l-2.12 3.36a13.8 13.8 0 0 0-4.07-2.07 15.1 15.1 0 0 0-4.66-.76 7.74 7.74 0 0 0-5.43 1.74 5.58 5.58 0 0 0-1.89 4.28 5.12 5.12 0 0 0 1.09 3.27 10.1 10.1 0 0 0 2.69 2.36 49 49 0 0 0 4.42 2.33 60 60 0 0 1 5.58 3.1 12.5 12.5 0 0 1 3.65 3.63 9.44 9.44 0 0 1 1.51 5.42 8.89 8.89 0 0 1-3.54 7.56 14.85 14.85 0 0 1-9.15 2.65 21 21 0 0 1-6.75-1.06 14.9 14.9 0 0 1-5.22-2.89l2.47-3.54a14.4 14.4 0 0 0 4.72 3.13 14.6 14.6 0 0 0 5.55 1.12 8.84 8.84 0 0 0 5.84-1.77 5.9 5.9 0 0 0 2.13-4.78 6.3 6.3 0 0 0-1.18-3.83M744.43 359.56a13.7 13.7 0 0 1-5.61-5.52 17 17 0 0 1-2-8.35v-23.36h4.36v22.48q0 6.13 3.37 9.73a11.75 11.75 0 0 0 9 3.6 11.2 11.2 0 0 0 8.65-3.42q3.15-3.42 3.15-9.21v-23.18h3.84v22.48a18.2 18.2 0 0 1-2 8.79 14.26 14.26 0 0 1-5.78 5.84 17.7 17.7 0 0 1-8.64 2.06 17.5 17.5 0 0 1-8.34-1.94M806.88 347.81H791l-5 13.34h-4.42l15.63-38.82h3.9l15.57 38.82H812Zm-1.36-3.48L798.86 327l-6.55 17.34ZM857.21 357.67v3.48h-26v-38.82h4.36v35.34ZM895.14 357.67v3.48h-24.48v-38.82h22.77v3.48H875v13.92h16.17v3.48H875v14.46ZM926.71 347.93a9.8 9.8 0 0 0-2.92-2.62c-1.16-.69-2.75-1.51-4.75-2.45a50 50 0 0 1-5.31-2.78 11 11 0 0 1-3.39-3.27 8.5 8.5 0 0 1-1.39-4.93 8.75 8.75 0 0 1 3.36-7.25 13.5 13.5 0 0 1 8.62-2.66 21.5 21.5 0 0 1 5.42.71 15.9 15.9 0 0 1 4.72 2l-2.07 3.37a13.8 13.8 0 0 0-4.07-2.07 15 15 0 0 0-4.66-.76 7.74 7.74 0 0 0-5.43 1.74 5.58 5.58 0 0 0-1.89 4.28 5.18 5.18 0 0 0 1.09 3.27 10.2 10.2 0 0 0 2.69 2.36c1.06.65 2.54 1.43 4.42 2.33a60 60 0 0 1 5.58 3.1 12.65 12.65 0 0 1 3.66 3.63 9.5 9.5 0 0 1 1.5 5.42 8.89 8.89 0 0 1-3.54 7.56 14.84 14.84 0 0 1-9.14 2.65 21 21 0 0 1-6.76-1.06 15 15 0 0 1-5.22-2.89l2.48-3.54a14.3 14.3 0 0 0 4.72 3.13 14.5 14.5 0 0 0 5.54 1.12 8.84 8.84 0 0 0 5.84-1.77 5.9 5.9 0 0 0 2.13-4.78 6.3 6.3 0 0 0-1.23-3.84" class="cls-1"/><path d="M427.63 396.08h92.56v2.4h-92.56zM104.46 435.17h6.44v1.42h-6.44V444h-1.92v-15.86h8.95v1.42h-7ZM125.42 441.71a8.9 8.9 0 0 1 0-11.53 7.61 7.61 0 0 1 11.06 0 8.9 8.9 0 0 1 0 11.53 7.77 7.77 0 0 1-11.06 0m5.53.7a5 5 0 0 0 4-1.84 7.82 7.82 0 0 0 0-9.24 5.22 5.22 0 0 0-8.07 0 7.82 7.82 0 0 0 0 9.24 5 5 0 0 0 4.12 1.84ZM158.22 429.56V444h-1.91v-14.44h-5.86v-1.42h13.63v1.42ZM178 441.71a8.9 8.9 0 0 1 0-11.53 7.61 7.61 0 0 1 11.06 0 8.9 8.9 0 0 1 0 11.53 7.77 7.77 0 0 1-11.06 0m5.53.7a5 5 0 0 0 4-1.84 7.86 7.86 0 0 0 0-9.24 5.23 5.23 0 0 0-8.08 0 7.86 7.86 0 0 0 0 9.24 5 5 0 0 0 4.05 1.84ZM211.32 444.07a7.44 7.44 0 0 1-5.2-1.5c-1.47-1.13-2.27-3-2.41-5.47a9.24 9.24 0 0 1 1.62-6.23 6.84 6.84 0 0 1 5.45-2.63 7.16 7.16 0 0 1 5.54 1.67l-.63 1.5a5.5 5.5 0 0 0-4.24-1.6 4.87 4.87 0 0 0-4.43 2 7.78 7.78 0 0 0-1.25 5.18 5.65 5.65 0 0 0 2 4.37 6 6 0 0 0 4 1.14 6.4 6.4 0 0 0 3.06-1v-4.07h-3.51V436h5.42v6a10.14 10.14 0 0 1-5.42 2.07M233.09 428.14c3.74.06 5.64 1.57 5.72 4.53v.08q-.1 3.72-4.27 4.43a4.14 4.14 0 0 1 1.72 1.53l4.07 5.29h-2.5l-3.57-4.81c-1-1.27-1.83-1.91-2.47-1.92H231V444h-2v-15.86Zm-2.09 1.49v6.15h2.15c2.46 0 3.72-1 3.8-2.91v-.32c-.08-1.91-1.34-2.88-3.8-2.92ZM255.37 438.94l-2.1 5.06h-2l6.68-15.86h1.44L266 444h-2l-2.09-5.06Zm6-1.41-2.69-6.87-2.7 6.87ZM279.65 435.17h6.44v1.42h-6.44V444h-1.91v-15.86h8.94v1.42h-7ZM301.28 428.14V444h-1.91v-15.86ZM317.6 438.94l-2.1 5.06h-2l6.68-15.86h1.44l6.65 15.86h-2l-2.09-5.06Zm6-1.41-2.69-6.87-2.7 6.87ZM361.42 435.42v-.05l4.44-7.23h2.23l-5.75 8.72V444h-1.91v-7.14l-5.74-8.72h2.23l4.44 7.23ZM401.91 441.48l5.36-13.34h2.15L402.74 444h-1.68l-6.68-15.86h2.15ZM423.21 428.14V444h-1.91v-15.86ZM441 428.14q7.48.09 7.59 8v.08c-.07 5.11-2.6 7.68-7.59 7.74h-4.51v-15.82Zm-2.6 1.49v12.88h2.6q5.56-.06 5.67-6.13v-.31q-.11-6.37-5.67-6.44ZM463.05 435.17h6.44v1.42h-6.44v6h7V444h-8.94v-15.86h8.94v1.42h-7ZM484 441.71a8.9 8.9 0 0 1 0-11.53 7.63 7.63 0 0 1 11.07 0 8.9 8.9 0 0 1 0 11.53 7.79 7.79 0 0 1-11.07 0m5.53.7a5 5 0 0 0 4-1.84 7.82 7.82 0 0 0 0-9.24 5.22 5.22 0 0 0-8.07 0 7.82 7.82 0 0 0 0 9.24 5 5 0 0 0 4.08 1.84ZM530.65 428.14q7.49.09 7.59 8v.08c-.07 5.11-2.6 7.68-7.59 7.74h-4.52v-15.82Zm-2.65 1.49v12.88h2.62q5.57-.06 5.67-6.13v-.31q-.11-6.37-5.67-6.44ZM552.72 435.17h6.45v1.42h-6.45v6h7V444h-9v-15.86h9v1.42h-7ZM590.63 428.14V444h-1.91v-15.86Zm3.31 7.18c1.53 0 2.32-.94 2.39-2.69v-.31c-.07-1.75-1.14-2.65-3.21-2.69h-3v-1.49h3q5 .09 5.13 4.29v.08a3.62 3.62 0 0 1-2.12 3.32q3.2.63 3.29 3.66v.34c-.07 2.72-1.89 4.11-5.48 4.17h-4l.06-1.49h3.79c2.39 0 3.61-.89 3.68-2.57v-.57c-.07-1.67-1.14-2.53-3.21-2.57H590l.06-1.48ZM613.58 428.14V444h-1.91v-15.86ZM628.74 435.17h6.44v1.42h-6.44v6h7V444h-8.94v-15.86h8.94v1.42h-7ZM650.25 431.65V444h-1.91v-15.86h1.56l9.23 12.71v-12.71H661V444h-1.68ZM675.94 435.17h6.45v1.42h-6.45v6h7V444H674v-15.86h9v1.42h-7ZM700.15 435.23q3.4 1.92 3.66 4.09a3.89 3.89 0 0 1-1.08 3.45 5.34 5.34 0 0 1-3.79 1.28 6.13 6.13 0 0 1-4.5-2l.59-1.57a5.26 5.26 0 0 0 3.78 1.93 3.12 3.12 0 0 0 2.72-1 2.17 2.17 0 0 0 .17-2.22c-.36-.83-1.58-1.81-3.65-3s-3.19-2.46-3.33-4a3.59 3.59 0 0 1 1.08-3.19 5.34 5.34 0 0 1 3.58-1 6.14 6.14 0 0 1 3.74 1.14l-.35 1.46a6.06 6.06 0 0 0-2.58-1 3.84 3.84 0 0 0-2.65.32 1.88 1.88 0 0 0-.94 2q.17 1.4 3.55 3.31M736.4 428.14c3.75.06 5.65 1.57 5.72 4.53v.08q-.09 3.72-4.26 4.43a4.2 4.2 0 0 1 1.72 1.53l4.07 5.29h-2.5l-3.57-4.81c-1-1.27-1.84-1.91-2.48-1.92h-.83V444h-1.91v-15.86Zm-2.13 1.49v6.15h2.15q3.69-.06 3.79-2.91v-.32q-.11-2.87-3.79-2.92ZM758.68 438.94l-2.1 5.06h-2l6.68-15.86h1.44l6.66 15.86h-2l-2.1-5.06Zm6-1.41-2.7-6.87-2.69 6.87ZM783 428.14V444h-1.91v-15.86ZM803.7 444.07a7.42 7.42 0 0 1-5.19-1.5c-1.47-1.13-2.3-3-2.48-5.53a9.06 9.06 0 0 1 1.63-6.34 6.93 6.93 0 0 1 5.5-2.69 7.1 7.1 0 0 1 5.54 1.67l-.62 1.5a5.53 5.53 0 0 0-4.25-1.61 5 5 0 0 0-4.48 2.08 7.68 7.68 0 0 0-1.25 5.3q.28 3.14 2 4.43a5.93 5.93 0 0 0 4 1.15 10.6 10.6 0 0 0 4.42-1.32l.12 1.24a9.6 9.6 0 0 1-4.94 1.62M823.34 435.17h6.44v1.42h-6.44v6h7V444h-8.94v-15.86h8.94v1.42h-7ZM847.55 435.23c2.27 1.28 3.48 2.64 3.65 4.09a3.89 3.89 0 0 1-1.07 3.45 5.35 5.35 0 0 1-3.8 1.28 6.13 6.13 0 0 1-4.5-2l.6-1.57a5.26 5.26 0 0 0 3.78 1.93 3.1 3.1 0 0 0 2.71-1 2.12 2.12 0 0 0 .17-2.22c-.35-.83-1.57-1.81-3.65-3s-3.18-2.46-3.32-4a3.54 3.54 0 0 1 1.08-3.19 5.3 5.3 0 0 1 3.57-1 6.15 6.15 0 0 1 3.75 1.14l-.36 1.46a6.06 6.06 0 0 0-2.57-1 3.87 3.87 0 0 0-2.66.32 1.89 1.89 0 0 0-.93 2c.1.92 1.29 2.08 3.55 3.31" class="cls-2"/></svg>